<?xml version="1.0" standalone="no"?>
<!DOCTYPE svg PUBLIC "-//W3C//DTD SVG 20010904//EN"
 "http://www.w3.org/TR/2001/REC-SVG-20010904/DTD/svg10.dtd">
<svg version="1.0" xmlns="http://www.w3.org/2000/svg"
 width="512.000000pt" height="512.000000pt" viewBox="0 0 512.000000 512.000000"
 preserveAspectRatio="xMidYMid meet">
<metadata>
Created by potrace 1.14, written by Peter Selinger 2001-2017
</metadata>
<g transform="translate(0.000000,512.000000) scale(0.100000,-0.100000)"
fill="#000000" stroke="none">
<path d="M2474 4686 c-74 -18 -1695 -934 -1752 -989 -24 -23 -55 -67 -70 -97
l-27 -55 0 -985 0 -985 22 -47 c41 -90 88 -128 327 -262 359 -202 428 -229
591 -229 158 -1 273 40 358 125 60 60 112 157 127 237 6 34 10 406 10 992 l0
938 -22 15 c-17 12 -49 16 -135 16 -100 0 -115 -2 -133 -20 -20 -20 -20 -33
-20 -940 0 -828 -2 -924 -16 -953 -36 -70 -81 -102 -161 -113 -91 -12 -141 8
-403 156 l-245 138 0 933 0 933 810 458 c446 251 817 457 825 457 8 0 380
-206 825 -457 l810 -458 0 -933 0 -934 -155 -87 c-85 -48 -447 -252 -803 -453
-356 -201 -656 -369 -667 -372 -12 -4 -88 35 -234 120 -119 69 -223 125 -231
125 -9 0 -46 -15 -83 -34 -37 -18 -100 -45 -139 -60 -40 -15 -75 -31 -78 -35
-9 -16 48 -54 327 -215 346 -200 385 -214 512 -181 76 20 1676 920 1747 983
28 25 60 67 76 100 l28 57 0 985 0 985 -27 55 c-15 30 -46 74 -70 97 -30 28
-297 184 -863 504 -451 255 -837 469 -858 476 -58 20 -146 24 -203 9z"/>
<path d="M2821 3399 c-206 -24 -392 -115 -476 -233 -67 -95 -80 -138 -80 -271
0 -116 1 -123 32 -186 87 -176 241 -243 674 -294 456 -54 559 -95 559 -225 0
-44 -21 -103 -48 -134 -26 -29 -128 -74 -209 -92 -58 -13 -112 -15 -256 -12
-175 4 -186 6 -281 38 -59 20 -113 45 -132 63 -39 34 -81 115 -90 175 -10 64
-28 72 -161 72 -102 0 -115 -2 -134 -21 -19 -19 -21 -28 -15 -90 19 -193 121
-332 310 -424 114 -56 225 -82 394 -93 567 -39 912 142 947 499 8 80 -14 191
-50 253 -31 53 -108 127 -161 154 -41 21 -177 64 -254 81 -25 6 -153 26 -285
45 -468 69 -521 90 -520 210 1 77 32 122 109 156 88 40 150 50 304 50 207 0
345 -38 407 -112 32 -37 75 -124 75 -150 0 -10 9 -27 20 -38 18 -18 33 -20
139 -20 138 0 151 6 151 74 0 167 -126 358 -284 432 -189 87 -441 121 -685 93z"/>
</g>
</svg>
